<svg xmlns="http://www.w3.org/2000/svg" xml:space="preserve" width="712" height="860"><path fill="#202020" d="M684 677.7h-.1c-6-6.8-9-19.5-12-33-3.2-13.6-6.6-28.2-17.7-37.6h-.1a46 46 0 0 0-13.6-8.3c15.4-45.8 9.3-91.3-6.2-132.5-19.2-50.5-52.5-94.6-78-124.7-28.5-36-56.5-70.1-55.9-120.6.9-77 8.5-219.8-127-220-5.6 0-11.3.2-17.3.7-151.4 12.2-111.3 172.2-113.5 225.8-2.8 39.1-10.7 70-37.7 108.3-31.6 37.7-76.2 98.6-97.3 162-10 30-14.7 60.5-10.3 89.3a67.7 67.7 0 0 0-4 3.9c-9.3 10-16.1 22-23.8 30-7.1 7.2-17.3 9.9-28.5 13.9s-23.5 10-31 24.2v.1A43.2 43.2 0 0 0 5.3 680c0 6.6 1 13.4 2 19.8 2 13.5 4.2 26.2 1.4 34.8-8.9 24.3-10 41-3.8 53.2 6.3 12.2 19.1 17.5 33.7 20.6 29 6 68.4 4.5 99.4 21l2.7-5-2.7 5c33.2 17.3 66.9 23.5 93.7 17.4a60.8 60.8 0 0 0 43.4-34c21 0 44-9 81-11 25-2 56.3 9 92.3 7a67.3 67.3 0 0 0 71.7 49.8c27.7-2.2 57.1-18.5 80.9-46.8l-4.4-3.7 4.4 3.6c22.7-27.4 60.3-38.8 85.3-53.9 12.4-7.5 22.5-16.9 23.3-30.6.8-13.7-7.2-29-25.7-49.5z"/><path fill="#f8bf11" d="M698.2 726.6c-.4 8.4-6.6 14.7-17.8 21.5-22.6 13.6-62.6 25.4-88.1 56.4-22.2 26.4-49.2 40.8-73 42.7s-44.4-8-56.5-32.3v-.1c-7.6-14.3-4.5-36.9 1.9-60.6 6.3-23.8 15.4-48.3 16.6-68.1 1.3-25.5 2.7-47.8 7-64.9 4.3-17.2 11-28.8 23-35.3l1.6-.8c1.3 22 12.2 44.5 31.5 49.3 21.1 5.6 51.5-12.5 64.4-27.3l7.5-.3c11.2-.2 20.7.4 30.3 8.8l.1.1c7.4 6.3 11 18.2 14 31.5s5.5 27.8 14.7 38.1c17.7 19.6 23.3 32.8 22.8 41.3zM269.5 789c-2 26.8-17.1 41.4-40.3 46.7-23.1 5.3-54.5 0-85.9-16.4-34.7-18.4-76-16.5-102.4-22-13.2-2.8-21.9-7-25.8-14.7-4-7.7-4-21.2 4.3-44.2l.1-.2c4.2-12.8 1-26.9-1-40.1-2-13.2-3-25.2 1.6-33.6 5.8-11.2 14.2-15.1 24.7-18.9 10.6-3.8 23-6.7 32.8-16.6h.1c9.1-9.7 16-21.7 24-30.2 6.7-7.2 13.4-12 23.6-12h.4c1.7 0 3.6 0 5.6.4 13.5 2 25.3 11.5 36.6 26.8l32.8 59.7c8.7 18.3 27.1 38.3 42.7 58.7 15.6 20.4 27.7 40.9 26 56.6zM432.8 232.7c-2.7-5.2-8-10-17.2-13.8-19-8.2-27.3-8.8-37.9-15.7-17.3-11-31.5-15-43.4-14.9-6.2 0-11.7 1.1-16.7 2.8-14.5 5-24 15.4-30 21v.1l-6.5 4.9-17.2 12.7c-7.1 5.4-9.5 12.3-7 20.4 2.5 8.2 10.3 17.6 24.6 25.7 9 5.2 15 12.3 22 17.9a47 47 0 0 0 27.6 10.7 62 62 0 0 0 36.2-9.3c9.9-5.6 18.3-12.5 27.9-15.6 19.7-6.2 33.7-18.6 38-30.3a20 20 0 0 0-.4-16.6z"/><path fill="#202020" d="M382.9 261.7c-15.7 8.2-34 18-53.4 18s-34.7-9-45.8-17.7c-5.5-4.4-10-8.7-13.4-11.9-5.8-4.6-5.1-11-2.7-10.9 4 .5 4.6 5.8 7.2 8.2 3.4 3.2 7.7 7.4 13 11.5a67.2 67.2 0 0 0 41.7 16.4c17.4 0 37.8-10.3 50.2-17.2 7-4 16-11 23.2-16.4 5.6-4 5.4-9 10-8.5 4.6.6 1.2 5.5-5.3 11.1a144.5 144.5 0 0 1-24.7 17.4z"/><path fill="#FFF" d="M622.4 595.5c-2.2-.1-4.3-.1-6.4 0h-.6c5.4-17-6.5-29.5-38.2-43.8-32.8-14.5-59-13-63.4 16.3-.2 1.5-.5 3-.6 4.6-2.5.9-5 2-7.4 3.3-15.4 8.5-23.9 23.8-28.5 42.6-4.7 18.7-6 41.4-7.3 66.9-.8 12.8-6.1 30.1-11.5 48.5-53.7 38.4-128.4 55-191.8 11.7-4.2-6.8-9.2-13.5-14.2-20.1-3.3-4.3-6.6-8.5-10-12.6 6.6 0 12.1-1.1 16.6-3.1 5.5-2.5 9.4-6.6 11.4-11.8 3.8-10.4 0-25-12.4-41.8-12.4-16.7-33.3-35.6-64.1-54.5a90.7 90.7 0 0 1-41.2-50c-6-18.8-5-39-.5-59 8.7-38.4 31.2-75.7 45.6-99.1 3.9-2.9 1.4 5.3-14.5 34.8-14.3 27-41 89.4-4.5 138 1-34.6 9.3-69.9 23.2-103 20.2-45.8 62.5-125.3 65.9-188.7 1.7 1.3 7.7 5.3 10.3 6.8 7.8 4.6 13.6 11.3 21.2 17.3a52.2 52.2 0 0 0 35.3 12.3 70 70 0 0 0 35.8-10.3c10.4-6 18.6-12.5 26.5-15a71.3 71.3 0 0 0 37.4-25.2c13 51 43 124.5 62.3 160.4 10.3 19 30.7 59.5 39.5 108.2 5.6-.1 11.7.7 18.3 2.4 23.1-59.9-19.5-124.3-39-142.2-7.9-7.6-8.3-11-4.4-10.9a206 206 0 0 1 59 98.8c4.6 19.3 5.6 39.7.7 59.8 2.4 1 4.9 2 7.4 3.3 37 18 50.7 33.7 44 55z"/><path fill="#e6e6e6" d="M358.5 433.8a170.5 252.3 0 0 0-158.3 160l3.8 2.3v.2c28.9 18.4 49.4 36.8 62.1 54 13.5 18.2 19.4 35.9 13.8 51.2-3 7.7-9 14-16.7 17.4l-2.5 1c4.6 5.9 9 12 13.1 18.4 58 38.6 125.5 24.3 176.1-10.6 5-17 9.4-33 10-42.9a371 371 0 0 1 7.6-68.8c5.1-20.2 15-38.7 33.5-48.8 1-.6 2-1 3.1-1.4.3-2 .8-4 1.4-5.8a170.5 252.3 0 0 0-147-126.2zM504 566.2v.3V566.2z" color="#000" overflow="visible" style="isolation:auto;mix-blend-mode:normal;solid-color:#000;solid-opacity:1"/><path fill="#fff" d="M434.5 174a64.6 64.6 0 0 1-13.2 40.3c-1-.5-2-1-3.2-1.4-3.8-1.6-7.1-3-10.2-4.1l-7.8-2.8c1.8-2 5.3-4.6 6.6-7.7 2-4.8 2.9-9.4 3-15l.1-.6c.1-5.3-.6-9.9-2.1-14.5a26.7 26.7 0 0 0-6.7-11.3c-3-2.9-6-4.2-9.5-4.3h-.5a14 14 0 0 0-9.3 3.6c-3.2 2.7-5.5 6-7.5 10.8-2 4.7-3 9.4-3.1 15v.6c-.1 3 0 5.9.6 8.6-7-3.5-15.7-6-21.8-7.4-.3-2.6-.5-5.3-.6-8.2v-.8c-.1-10 1.5-18.6 5.4-27.4 3.9-8.8 8.7-15 15.4-20.2a34 34 0 0 1 21.2-7.6h.4c7.7 0 14.3 2.3 21 7.2a48 48 0 0 1 15.8 19.9 64 64 0 0 1 6 27.3zM318.4 184a64 64 0 0 0-17 7.8c.4-3 .5-5.9.1-9.2v-.5a40 40 0 0 0-3-11.8 22.7 22.7 0 0 0-5.8-8.7 9.7 9.7 0 0 0-7.3-2.7c-2.6.2-4.8 1.5-6.8 4-2 2.4-3.3 5.4-4.3 9.5-1 4-1.2 8-.8 12.6v.5a39 39 0 0 0 3 11.8 22.5 22.5 0 0 0 7 9.7c-2.4 2-4.1 3.3-6.2 4.8l-4.8 3.5c-4-3.8-7.1-8.5-9.8-14.7-3.3-7.4-5-14.7-5.5-23.4v-.1c-.5-8.7.3-16.2 2.7-24a41 41 0 0 1 10.3-17.9 22 22 0 0 1 16.2-7.2c5.2 0 9.7 1.7 14.4 5.5 5.2 4 9 9.3 12.3 16.7a65 65 0 0 1 5.4 23.4c.3 3.7.2 7.2 0 10.5z"/><path fill="#202020" d="M344 204.9c.7 2 4 1.7 6 2.7 1.7.9 3 2.8 5 2.9 1.8 0 4.6-.7 4.9-2.5.3-2.4-3.2-3.9-5.4-4.8-3-1-6.6-1.6-9.3-.1-.6.3-1.3 1.1-1.1 1.8zM324.3 204.9c-.6 2-4 1.7-5.9 2.7-1.7.9-3 2.8-5 2.9-1.8 0-4.6-.7-4.9-2.5-.3-2.4 3.2-3.9 5.4-4.8 3-1 6.6-1.6 9.3-.1.7.3 1.3 1.1 1.1 1.8z"/></svg>